<svg xmlns="http://www.w3.org/2000/svg" version="1.0" viewBox="37.5 139 219.03 96.75"><defs><clipPath id="a"><path d="M37.5 139.004h123v96.75h-123zm0 0"/></clipPath><clipPath id="b"><path d="M117.2 174.371c1.894.356 3.757.809 5.577 1.344a3.02 3.02 0 0 0 .461 1.898l-.047-.078c-.007-.008-.011-.02-.02-.027a3.028 3.028 0 0 1-.378-1.106c0-.015-.004-.027-.004-.043a2.776 2.776 0 0 1-.023-.359 3.027 3.027 0 0 1 1.511-2.61 3.025 3.025 0 0 1 4.125 1.11 2.983 2.983 0 0 1 .407 1.496c0 .59-.172 1.168-.5 1.664a55.066 55.066 0 0 1 5.945 2.856c-.184.343-.39.675-.613.996l.011-.02c2.094-2.98 2.375-7.027.41-10.34a9.558 9.558 0 0 0-4.882-4.105 8.166 8.166 0 0 0-.551-.16 9.524 9.524 0 0 0-2.742-.399 9.534 9.534 0 0 0-3.82.797c-.016.008-.032.012-.047.02l-10.75-6.184-11.008 6.332-9.13-5.254 19.485-11.215 31.617 18.192v11.445l-31.629 18.219-31.628-18.211c0 .004 0 .004-.004.004l-22.285-12.828a9.382 9.382 0 0 0-1.27-5.348 9.565 9.565 0 0 0-7.305-4.738c-4.254-.453-8.32 1.984-9.914 5.949a9.525 9.525 0 0 0 .594 8.355 9.57 9.57 0 0 0 1.816 2.262 9.62 9.62 0 0 0 9.871 1.91l18.11 10.43v1.21l.008.017v23.707l42.02 24.195 35.429-20.39a9.63 9.63 0 0 0 9.645.016c4.59-2.634 6.167-8.493 3.511-13.071-2.398-4.153-7.457-5.829-11.805-4.13a9.575 9.575 0 0 0-6.054 7.895l-30.742 17.696-26.766-15.395h.008l-4.864-2.793v-12.977l26.434 15.211 5.207 2.996 36.246-20.867 5.754-3.312v-23.438c-9.05-5.207-18.101-10.418-27.152-15.636 0 0 0 .004-.004.004-4.953-2.856-9.91-5.711-14.863-8.56l-29.883 17.204-2.059-1.187a9.55 9.55 0 0 0-1.281-5.208c-2.656-4.582-8.524-6.14-13.11-3.5-4.593 2.645-6.171 8.489-3.515 13.07 2.387 4.122 7.437 5.856 11.844 4.118l20.25 11.652c-.004 0-.004 0-.008.004l7.437 4.274 11.028-6.34c1.965 1.133 3.785 2.375 5.691 3.566-.004-.027-.004-.058-.008-.086.367 4.79 4.38 8.563 9.278 8.563a9.297 9.297 0 0 0 7.375-3.621c.222-.32.43-.653.613-.996a55.066 55.066 0 0 0-5.945-2.856c-.004.008-.012.016-.016.024-.106.156-.23.308-.367.445h-.004a2.978 2.978 0 0 1-.824.586c-.25.12-.52.207-.801.254-.004 0-.008.004-.016.004a5.458 5.458 0 0 1-.25.03h-.004c-.078.009-.16.009-.238.009-.05 0-.102 0-.148-.004a2.97 2.97 0 0 1-1.235-.328 3.033 3.033 0 0 1-1.168-1.063v-.004a3.02 3.02 0 0 1-.46-1.898 57.168 57.168 0 0 0-5.579-1.344zm-67.41-8.52a3 3 0 0 1-1.176 3.992 3.03 3.03 0 0 1-1.981.372 3.04 3.04 0 0 1-2.055-1.324l-.086-.145a3.01 3.01 0 0 1 1.106-4.117 3.037 3.037 0 0 1 2.504-.234 3.007 3.007 0 0 1 1.543 1.21c.05.083.101.16.144.243zm22.288-11.042a2.995 2.995 0 0 1-.418 1.332 3.05 3.05 0 0 1-.695.804 3.037 3.037 0 0 1-1.895.668c-.465 0-.925-.11-1.34-.312a3.067 3.067 0 0 1-1.195-1.059c-.027-.043-.058-.09-.086-.137a2.981 2.981 0 0 1-.402-1.507 3.022 3.022 0 0 1 1.512-2.61c.015-.011.035-.023.054-.035a3.05 3.05 0 0 1 2.59-.144c.504.203.942.543 1.266.968.078.098.148.203.215.317a3.02 3.02 0 0 1 .402 1.508c0 .07 0 .136-.008.207zm77.047 54.73c-1.64-1.176-1.68-3.605-.066-4.836a3.027 3.027 0 0 1 4.316.676 3.009 3.009 0 0 1-.746 4.18c-1.05.738-2.461.73-3.504-.02zm-32.164-33.684c0 .083.004.16.004.243 0-.082-.004-.16-.004-.243zm.004.243c.004.078.004.156.008.234-.004-.078-.004-.156-.008-.234zm.008.238.015.234-.015-.234zm0 0" clip-rule="evenodd"/></clipPath><linearGradient x1="190.493" gradientTransform="matrix(.01356 0 0 .01352 37.505 139.003)" y1="-138.994" x2="6738.176" gradientUnits="userSpaceOnUse" y2="8853.027" id="c"><stop stop-color="#8C52FF" offset="0" data-darkreader-inline-stopcolor="" style="--darkreader-inline-stopcolor: #34009b;"/><stop stop-color="#8C52FF" offset=".125" data-darkreader-inline-stopcolor="" style="--darkreader-inline-stopcolor: #34009b;"/><stop stop-color="#8C52FF" offset=".188" data-darkreader-inline-stopcolor="" style="--darkreader-inline-stopcolor: #34009b;"/><stop stop-color="#8C52FF" offset=".219" data-darkreader-inline-stopcolor="" style="--darkreader-inline-stopcolor: #34009b;"/><stop stop-color="#8D53FF" offset=".223" data-darkreader-inline-stopcolor="" style="--darkreader-inline-stopcolor: #34009a;"/><stop stop-color="#8D54FF" offset=".227" data-darkreader-inline-stopcolor="" style="--darkreader-inline-stopcolor: #33009a;"/><stop stop-color="#8E55FF" offset=".23" data-darkreader-inline-stopcolor="" style="--darkreader-inline-stopcolor: #330099;"/><stop stop-color="#8F56FF" offset=".234" data-darkreader-inline-stopcolor="" style="--darkreader-inline-stopcolor: #330098;"/><stop stop-color="#9057FF" offset=".238" data-darkreader-inline-stopcolor="" style="--darkreader-inline-stopcolor: #340098;"/><stop stop-color="#9059FF" offset=".242" data-darkreader-inline-stopcolor="" style="--darkreader-inline-stopcolor: #320097;"/><stop stop-color="#915AFF" offset=".246" data-darkreader-inline-stopcolor="" style="--darkreader-inline-stopcolor: #320096;"/><stop stop-color="#925BFF" offset=".25" data-darkreader-inline-stopcolor="" style="--darkreader-inline-stopcolor: #320095;"/><stop stop-color="#935CFF" offset=".254" data-darkreader-inline-stopcolor="" style="--darkreader-inline-stopcolor: #320095;"/><stop stop-color="#945DFF" offset=".258" data-darkreader-inline-stopcolor="" style="--darkreader-inline-stopcolor: #320094;"/><stop stop-color="#945FFF" offset=".262" data-darkreader-inline-stopcolor="" style="--darkreader-inline-stopcolor: #310093;"/><stop stop-color="#9560FF" offset=".266" data-darkreader-inline-stopcolor="" style="--darkreader-inline-stopcolor: #310092;"/><stop stop-color="#9661FF" offset=".27" data-darkreader-inline-stopcolor="" style="--darkreader-inline-stopcolor: #310092;"/><stop stop-color="#9762FF" offset=".273" data-darkreader-inline-stopcolor="" style="--darkreader-inline-stopcolor: #310091;"/><stop stop-color="#9763FF" offset=".277" data-darkreader-inline-stopcolor="" style="--darkreader-inline-stopcolor: #300091;"/><stop stop-color="#9865FF" offset=".281" data-darkreader-inline-stopcolor="" style="--darkreader-inline-stopcolor: #2f008f;"/><stop stop-color="#96F" offset=".285" data-darkreader-inline-stopcolor="" style="--darkreader-inline-stopcolor: #30008f;"/><stop stop-color="#9A67FF" offset=".289" data-darkreader-inline-stopcolor="" style="--darkreader-inline-stopcolor: #30008e;"/><stop stop-color="#9B68FF" offset=".293" data-darkreader-inline-stopcolor="" style="--darkreader-inline-stopcolor: #30008e;"/><stop stop-color="#9B69FF" offset=".297" data-darkreader-inline-stopcolor="" style="--darkreader-inline-stopcolor: #2f008d;"/><stop stop-color="#9C6BFF" offset=".301" data-darkreader-inline-stopcolor="" style="--darkreader-inline-stopcolor: #2e008c;"/><stop stop-color="#9D6CFF" offset=".305" data-darkreader-inline-stopcolor="" style="--darkreader-inline-stopcolor: #2e008b;"/><stop stop-color="#9E6DFF" offset=".309" data-darkreader-inline-stopcolor="" style="--darkreader-inline-stopcolor: #2f008b;"/><stop stop-color="#9F6EFF" offset=".313" data-darkreader-inline-stopcolor="" style="--darkreader-inline-stopcolor: #2f008a;"/><stop stop-color="#9F6FFF" offset=".316" data-darkreader-inline-stopcolor="" style="--darkreader-inline-stopcolor: #2e0089;"/><stop stop-color="#A071FF" offset=".32" data-darkreader-inline-stopcolor="" style="--darkreader-inline-stopcolor: #2d0088;"/><stop stop-color="#A172FF" offset=".324" data-darkreader-inline-stopcolor="" style="--darkreader-inline-stopcolor: #2d0088;"/><stop stop-color="#A273FF" offset=".328" data-darkreader-inline-stopcolor="" style="--darkreader-inline-stopcolor: #2d0087;"/><stop stop-color="#A374FF" offset=".332" data-darkreader-inline-stopcolor="" style="--darkreader-inline-stopcolor: #2d0086;"/><stop stop-color="#A375FF" offset=".336" data-darkreader-inline-stopcolor="" style="--darkreader-inline-stopcolor: #2d0086;"/><stop stop-color="#A476FF" offset=".34" data-darkreader-inline-stopcolor="" style="--darkreader-inline-stopcolor: #2d0085;"/><stop stop-color="#A578FF" offset=".344" data-darkreader-inline-stopcolor="" style="--darkreader-inline-stopcolor: #2c0084;"/><stop stop-color="#A679FF" offset=".348" data-darkreader-inline-stopcolor="" style="--darkreader-inline-stopcolor: #2c0083;"/><stop stop-color="#A77AFF" offset=".352" data-darkreader-inline-stopcolor="" style="--darkreader-inline-stopcolor: #2c0083;"/><stop stop-color="#A77BFF" offset=".355" data-darkreader-inline-stopcolor="" style="--darkreader-inline-stopcolor: #2b0082;"/><stop stop-color="#A87CFF" offset=".359" data-darkreader-inline-stopcolor="" style="--darkreader-inline-stopcolor: #2c0082;"/><stop stop-color="#A97EFF" offset=".363" data-darkreader-inline-stopcolor="" style="--darkreader-inline-stopcolor: #2b0080;"/><stop stop-color="#AA7FFF" offset=".367" data-darkreader-inline-stopcolor="" style="--darkreader-inline-stopcolor: #2b0080;"/><stop stop-color="#AB80FF" offset=".371" data-darkreader-inline-stopcolor="" style="--darkreader-inline-stopcolor: #2b007f;"/><stop stop-color="#AB81FF" offset=".375" data-darkreader-inline-stopcolor="" style="--darkreader-inline-stopcolor: #2a007f;"/><stop stop-color="#AC82FF" offset=".379" data-darkreader-inline-stopcolor="" style="--darkreader-inline-stopcolor: #2a007e;"/><stop stop-color="#AD84FF" offset=".383" data-darkreader-inline-stopcolor="" style="--darkreader-inline-stopcolor: #2a007d;"/><stop stop-color="#AE85FF" offset=".387" data-darkreader-inline-stopcolor="" style="--darkreader-inline-stopcolor: #2a007c;"/><stop stop-color="#AF86FF" offset=".391" data-darkreader-inline-stopcolor="" style="--darkreader-inline-stopcolor: #2a007c;"/><stop stop-color="#AF87FF" offset=".395" data-darkreader-inline-stopcolor="" style="--darkreader-inline-stopcolor: #29007b;"/><stop stop-color="#B088FF" offset=".398" data-darkreader-inline-stopcolor="" style="--darkreader-inline-stopcolor: #29007a;"/><stop stop-color="#B18AFF" offset=".402" data-darkreader-inline-stopcolor="" style="--darkreader-inline-stopcolor: #280079;"/><stop stop-color="#B28BFF" offset=".406" data-darkreader-inline-stopcolor="" style="--darkreader-inline-stopcolor: #290079;"/><stop stop-color="#B28CFF" offset=".41" data-darkreader-inline-stopcolor="" style="--darkreader-inline-stopcolor: #280078;"/><stop stop-color="#B38DFF" offset=".414" data-darkreader-inline-stopcolor="" style="--darkreader-inline-stopcolor: #280077;"/><stop stop-color="#B48EFF" offset=".418" data-darkreader-inline-stopcolor="" style="--darkreader-inline-stopcolor: #280077;"/><stop stop-color="#B590FF" offset=".422" data-darkreader-inline-stopcolor="" style="--darkreader-inline-stopcolor: #270076;"/><stop stop-color="#B691FF" offset=".426" data-darkreader-inline-stopcolor="" style="--darkreader-inline-stopcolor: #270075;"/><stop stop-color="#B692FF" offset=".43" data-darkreader-inline-stopcolor="" style="--darkreader-inline-stopcolor: #260074;"/><stop stop-color="#B793FF" offset=".434" data-darkreader-inline-stopcolor="" style="--darkreader-inline-stopcolor: #270074;"/><stop stop-color="#B894FF" offset=".438" data-darkreader-inline-stopcolor="" style="--darkreader-inline-stopcolor: #270073;"/><stop stop-color="#B996FF" offset=".441" data-darkreader-inline-stopcolor="" style="--darkreader-inline-stopcolor: #260072;"/><stop stop-color="#BA97FF" offset=".445" data-darkreader-inline-stopcolor="" style="--darkreader-inline-stopcolor: #260071;"/><stop stop-color="#BA98FF" offset=".449" data-darkreader-inline-stopcolor="" style="--darkreader-inline-stopcolor: #250071;"/><stop stop-color="#B9F" offset=".453" data-darkreader-inline-stopcolor="" style="--darkreader-inline-stopcolor: #250070;"/><stop stop-color="#BC9AFF" offset=".457" data-darkreader-inline-stopcolor="" style="--darkreader-inline-stopcolor: #35393b;"/><stop stop-color="#BD9BFF" offset=".461" data-darkreader-inline-stopcolor="" style="--darkreader-inline-stopcolor: #34393b;"/><stop stop-color="#BE9DFF" offset=".465" data-darkreader-inline-stopcolor="" style="--darkreader-inline-stopcolor: #34383a;"/><stop stop-color="#BE9EFF" offset=".469" data-darkreader-inline-stopcolor="" style="--darkreader-inline-stopcolor: #33383a;"/><stop stop-color="#BF9FFF" offset=".473" data-darkreader-inline-stopcolor="" style="--darkreader-inline-stopcolor: #333739;"/><stop stop-color="#C0A0FF" offset=".477" data-darkreader-inline-stopcolor="" style="--darkreader-inline-stopcolor: #333739;"/><stop stop-color="#C1A1FF" offset=".48" data-darkreader-inline-stopcolor="" style="--darkreader-inline-stopcolor: #333739;"/><stop stop-color="#C2A3FF" offset=".484" data-darkreader-inline-stopcolor="" style="--darkreader-inline-stopcolor: #323638;"/><stop stop-color="#C2A4FF" offset=".488" data-darkreader-inline-stopcolor="" style="--darkreader-inline-stopcolor: #323638;"/><stop stop-color="#C3A5FF" offset=".492" data-darkreader-inline-stopcolor="" style="--darkreader-inline-stopcolor: #313638;"/><stop stop-color="#C4A6FF" offset=".496" data-darkreader-inline-stopcolor="" style="--darkreader-inline-stopcolor: #313537;"/><stop stop-color="#C5A7FF" offset=".5" data-darkreader-inline-stopcolor="" style="--darkreader-inline-stopcolor: #313537;"/><stop stop-color="#C6A9FF" offset=".504" data-darkreader-inline-stopcolor="" style="--darkreader-inline-stopcolor: #303436;"/><stop stop-color="#C6AAFF" offset=".508" data-darkreader-inline-stopcolor="" style="--darkreader-inline-stopcolor: #303436;"/><stop stop-color="#C7ABFF" offset=".512" data-darkreader-inline-stopcolor="" style="--darkreader-inline-stopcolor: #303436;"/><stop stop-color="#C8ACFF" offset=".516" data-darkreader-inline-stopcolor="" style="--darkreader-inline-stopcolor: #2f3335;"/><stop stop-color="#C9ADFF" offset=".52" data-darkreader-inline-stopcolor="" style="--darkreader-inline-stopcolor: #2f3335;"/><stop stop-color="#C9AFFF" offset=".523" data-darkreader-inline-stopcolor="" style="--darkreader-inline-stopcolor: #2f3234;"/><stop stop-color="#CAB0FF" offset=".527" data-darkreader-inline-stopcolor="" style="--darkreader-inline-stopcolor: #2e3234;"/><stop stop-color="#CBB1FF" offset=".531" data-darkreader-inline-stopcolor="" style="--darkreader-inline-stopcolor: #2e3234;"/><stop stop-color="#CCB2FF" offset=".535" data-darkreader-inline-stopcolor="" style="--darkreader-inline-stopcolor: #2e3233;"/><stop stop-color="#CDB3FF" offset=".539" data-darkreader-inline-stopcolor="" style="--darkreader-inline-stopcolor: #2d3133;"/><stop stop-color="#CDB5FF" offset=".543" data-darkreader-inline-stopcolor="" style="--darkreader-inline-stopcolor: #2d3133;"/><stop stop-color="#CEB6FF" offset=".547" data-darkreader-inline-stopcolor="" style="--darkreader-inline-stopcolor: #2d3032;"/><stop stop-color="#CFB7FF" offset=".551" data-darkreader-inline-stopcolor="" style="--darkreader-inline-stopcolor: #2c3032;"/><stop stop-color="#D0B8FF" offset=".555" data-darkreader-inline-stopcolor="" style="--darkreader-inline-stopcolor: #2c3032;"/><stop stop-color="#D1B9FF" offset=".559" data-darkreader-inline-stopcolor="" style="--darkreader-inline-stopcolor: #2c2f31;"/><stop stop-color="#D1BAFF" offset=".563" data-darkreader-inline-stopcolor="" style="--darkreader-inline-stopcolor: #2b2f31;"/><stop stop-color="#D2BCFF" offset=".566" data-darkreader-inline-stopcolor="" style="--darkreader-inline-stopcolor: #2b2e30;"/><stop stop-color="#D3BDFF" offset=".57" data-darkreader-inline-stopcolor="" style="--darkreader-inline-stopcolor: #2b2e30;"/><stop stop-color="#D4BEFF" offset=".574" data-darkreader-inline-stopcolor="" style="--darkreader-inline-stopcolor: #2a2e30;"/><stop stop-color="#D5BFFF" offset=".578" data-darkreader-inline-stopcolor="" style="--darkreader-inline-stopcolor: #2a2e2f;"/><stop stop-color="#D5C0FF" offset=".582" data-darkreader-inline-stopcolor="" style="--darkreader-inline-stopcolor: #2a2d2f;"/><stop stop-color="#D6C2FF" offset=".586" data-darkreader-inline-stopcolor="" style="--darkreader-inline-stopcolor: #292d2e;"/><stop stop-color="#D7C3FF" offset=".59" data-darkreader-inline-stopcolor="" style="--darkreader-inline-stopcolor: #292c2e;"/><stop stop-color="#D8C4FF" offset=".594" data-darkreader-inline-stopcolor="" style="--darkreader-inline-stopcolor: #292c2e;"/><stop stop-color="#D9C5FF" offset=".598" data-darkreader-inline-stopcolor="" style="--darkreader-inline-stopcolor: #282c2d;"/><stop stop-color="#D9C6FF" offset=".602" data-darkreader-inline-stopcolor="" style="--darkreader-inline-stopcolor: #282b2d;"/><stop stop-color="#DAC8FF" offset=".605" data-darkreader-inline-stopcolor="" style="--darkreader-inline-stopcolor: #282b2c;"/><stop stop-color="#DBC9FF" offset=".609" data-darkreader-inline-stopcolor="" style="--darkreader-inline-stopcolor: #272b2c;"/><stop stop-color="#DCCAFF" offset=".613" data-darkreader-inline-stopcolor="" style="--darkreader-inline-stopcolor: #272a2c;"/><stop stop-color="#DDCBFF" offset=".617" data-darkreader-inline-stopcolor="" style="--darkreader-inline-stopcolor: #272a2c;"/><stop stop-color="#DCF" offset=".621" data-darkreader-inline-stopcolor="" style="--darkreader-inline-stopcolor: #262a2b;"/><stop stop-color="#DECEFF" offset=".625" data-darkreader-inline-stopcolor="" style="--darkreader-inline-stopcolor: #26292b;"/><stop stop-color="#DFCFFF" offset=".629" data-darkreader-inline-stopcolor="" style="--darkreader-inline-stopcolor: #26292a;"/><stop stop-color="#E0D0FF" offset=".633" data-darkreader-inline-stopcolor="" style="--darkreader-inline-stopcolor: #25282a;"/><stop stop-color="#E1D1FF" offset=".637" data-darkreader-inline-stopcolor="" style="--darkreader-inline-stopcolor: #25282a;"/><stop stop-color="#E1D2FF" offset=".641" data-darkreader-inline-stopcolor="" style="--darkreader-inline-stopcolor: #252829;"/><stop stop-color="#E2D4FF" offset=".645" data-darkreader-inline-stopcolor="" style="--darkreader-inline-stopcolor: #242729;"/><stop stop-color="#E3D5FF" offset=".648" data-darkreader-inline-stopcolor="" style="--darkreader-inline-stopcolor: #242728;"/><stop stop-color="#E4D6FF" offset=".652" data-darkreader-inline-stopcolor="" style="--darkreader-inline-stopcolor: #242728;"/><stop stop-color="#E4D7FF" offset=".656" data-darkreader-inline-stopcolor="" style="--darkreader-inline-stopcolor: #232628;"/><stop stop-color="#E5D8FF" offset=".66" data-darkreader-inline-stopcolor="" style="--darkreader-inline-stopcolor: #232627;"/><stop stop-color="#E6DAFF" offset=".664" data-darkreader-inline-stopcolor="" style="--darkreader-inline-stopcolor: #222527;"/><stop stop-color="#E7DBFF" offset=".668" data-darkreader-inline-stopcolor="" style="--darkreader-inline-stopcolor: #222526;"/><stop stop-color="#E8DCFF" offset=".672" data-darkreader-inline-stopcolor="" style="--darkreader-inline-stopcolor: #222526;"/><stop stop-color="#E8DDFF" offset=".676" data-darkreader-inline-stopcolor="" style="--darkreader-inline-stopcolor: #222426;"/><stop stop-color="#E9DEFF" offset=".68" data-darkreader-inline-stopcolor="" style="--darkreader-inline-stopcolor: #212425;"/><stop stop-color="#EADFFF" offset=".684" data-darkreader-inline-stopcolor="" style="--darkreader-inline-stopcolor: #212425;"/><stop stop-color="#EBE1FF" offset=".688" data-darkreader-inline-stopcolor="" style="--darkreader-inline-stopcolor: #202325;"/><stop stop-color="#ECE2FF" offset=".691" data-darkreader-inline-stopcolor="" style="--darkreader-inline-stopcolor: #202324;"/><stop stop-color="#ECE3FF" offset=".695" data-darkreader-inline-stopcolor="" style="--darkreader-inline-stopcolor: #202324;"/><stop stop-color="#EDE4FF" offset=".699" data-darkreader-inline-stopcolor="" style="--darkreader-inline-stopcolor: #202224;"/><stop stop-color="#EEE5FF" offset=".703" data-darkreader-inline-stopcolor="" style="--darkreader-inline-stopcolor: #1f2223;"/><stop stop-color="#EFE7FF" offset=".707" data-darkreader-inline-stopcolor="" style="--darkreader-inline-stopcolor: #1f2123;"/><stop stop-color="#F0E8FF" offset=".711" data-darkreader-inline-stopcolor="" style="--darkreader-inline-stopcolor: #1e2122;"/><stop stop-color="#F0E9FF" offset=".715" data-darkreader-inline-stopcolor="" style="--darkreader-inline-stopcolor: #1e2122;"/><stop stop-color="#F1EAFF" offset=".719" data-darkreader-inline-stopcolor="" style="--darkreader-inline-stopcolor: #1e2022;"/><stop stop-color="#F2EBFF" offset=".723" data-darkreader-inline-stopcolor="" style="--darkreader-inline-stopcolor: #1e2021;"/><stop stop-color="#F3EDFF" offset=".727" data-darkreader-inline-stopcolor="" style="--darkreader-inline-stopcolor: #1d2021;"/><stop stop-color="#F4EEFF" offset=".73" data-darkreader-inline-stopcolor="" style="--darkreader-inline-stopcolor: #1d1f20;"/><stop stop-color="#F4EFFF" offset=".734" data-darkreader-inline-stopcolor="" style="--darkreader-inline-stopcolor: #1d1f20;"/><stop stop-color="#F5F0FF" offset=".738" data-darkreader-inline-stopcolor="" style="--darkreader-inline-stopcolor: #1c1f20;"/><stop stop-color="#F6F1FF" offset=".742" data-darkreader-inline-stopcolor="" style="--darkreader-inline-stopcolor: #1c1e1f;"/><stop stop-color="#F7F3FF" offset=".746" data-darkreader-inline-stopcolor="" style="--darkreader-inline-stopcolor: #1b1e1f;"/><stop stop-color="#F8F4FF" offset=".75" data-darkreader-inline-stopcolor="" style="--darkreader-inline-stopcolor: #1b1d1e;"/><stop stop-color="#F8F5FF" offset=".754" data-darkreader-inline-stopcolor="" style="--darkreader-inline-stopcolor: #1b1d1e;"/><stop stop-color="#F9F6FF" offset=".758" data-darkreader-inline-stopcolor="" style="--darkreader-inline-stopcolor: #1b1d1e;"/><stop stop-color="#FAF7FF" offset=".762" data-darkreader-inline-stopcolor="" style="--darkreader-inline-stopcolor: #1a1c1e;"/><stop stop-color="#FBF9FF" offset=".766" data-darkreader-inline-stopcolor="" style="--darkreader-inline-stopcolor: #1a1c1d;"/><stop stop-color="#FBFAFF" offset=".77" data-darkreader-inline-stopcolor="" style="--darkreader-inline-stopcolor: #191c1d;"/><stop stop-color="#FCFBFF" offset=".773" data-darkreader-inline-stopcolor="" style="--darkreader-inline-stopcolor: #191b1c;"/><stop stop-color="#FDFCFF" offset=".777" data-darkreader-inline-stopcolor="" style="--darkreader-inline-stopcolor: #191b1c;"/><stop stop-color="#FEFDFF" offset=".781" data-darkreader-inline-stopcolor="" style="--darkreader-inline-stopcolor: #191b1c;"/><stop stop-color="#FEFEFF" offset=".785" data-darkreader-inline-stopcolor="" style="--darkreader-inline-stopcolor: #181a1b;"/><stop stop-color="#FFF" offset=".789" data-darkreader-inline-stopcolor="" style="--darkreader-inline-stopcolor: #181a1b;"/><stop stop-color="#FFF" offset=".797" data-darkreader-inline-stopcolor="" style="--darkreader-inline-stopcolor: #181a1b;"/><stop stop-color="#FFF" offset=".813" data-darkreader-inline-stopcolor="" style="--darkreader-inline-stopcolor: #181a1b;"/><stop stop-color="#FFF" offset=".875" data-darkreader-inline-stopcolor="" style="--darkreader-inline-stopcolor: #181a1b;"/><stop stop-color="#FFF" offset="1" data-darkreader-inline-stopcolor="" style="--darkreader-inline-stopcolor: #181a1b;"/></linearGradient></defs><g clip-path="url(#a)"><g clip-path="url(#b)"><path fill="url(#c)" d="M37.5 139.004v96.75h123v-96.75zm0 0"/></g></g><path d="M187.373 190.39h7.781v29.062h-7.781v-11.5h-5.703v11.5h-7.781V190.39h7.78v11.906h5.704zM209.282 196.859h7.562v22.593h-7.703v-2.437c-.574 1.625-1.902 2.437-3.984 2.437h-.813c-4.011 0-6.015-1.867-6.015-5.609v-11.36c0-3.75 2.004-5.624 6.015-5.624h.813c2.32 0 3.695.968 4.125 2.906zm-2.125 16.937h.766c.812 0 1.218-.453 1.218-1.36v-8.562c0-.894-.406-1.343-1.218-1.343h-.766c-.762 0-1.14.328-1.14.984v9.281c0 .668.378 1 1.14 1zM235.9 214.062v5.39h-16.798v-5.39l8.11-11.813h-7.516v-5.39h15.75v5.39l-8.234 11.813zM244.362 196.859h5.515c4.438 0 6.657 1.875 6.657 5.625v7.687h-11.547v2.985c0 .668.379 1 1.14 1h1.985c.758 0 1.14-.36 1.14-1.079v-1.28h7.282v2.046c0 3.742-2.22 5.61-6.657 5.61h-5.515c-4.438 0-6.657-1.868-6.657-5.61v-11.36c0-3.75 2.22-5.624 6.657-5.624zm.625 9.156h4.265v-2.86c0-.664-.382-1-1.14-1h-1.985c-.761 0-1.14.336-1.14 1zm0 0" fill="#d9d9d9" data-darkreader-inline-fill="" style="--darkreader-inline-fill: #2d3133;"/></svg>